<svg xmlns="http://www.w3.org/2000/svg" xmlns:xlink="http://www.w3.org/1999/xlink" width="1080" zoomAndPan="magnify" viewBox="0 0 810 809.999993" height="1080" preserveAspectRatio="xMidYMid meet" version="1.0"><path fill="#000000" d="M 409.609375 339.84375 C 459.472656 303.515625 529.574219 330.207031 541.835938 390.425781 C 545.210938 407.066406 543.726562 423.214844 537.390625 439.03125 C 516.574219 490.597656 453.792969 506.664062 409.527344 474.617188 C 408.867188 474.207031 408.210938 474.207031 407.550781 474.617188 C 380.808594 492.988281 353.164062 496.28125 324.527344 484.585938 C 285.773438 468.6875 264.710938 424.777344 276.722656 383.835938 C 293.425781 326.828125 359.746094 305.824219 407.386719 339.84375 C 408.128906 340.421875 408.867188 340.421875 409.609375 339.84375 Z M 400.144531 466.542969 C 367.5625 433.511719 367.808594 382.023438 400.144531 347.917969 C 400.804688 347.257812 400.722656 346.683594 399.980469 346.1875 C 383.441406 335.480469 366.820312 331.113281 350.117188 333.007812 C 309.71875 337.539062 278.121094 373.375 283.058594 415.058594 C 287.335938 450.972656 315.066406 478.40625 351.1875 481.703125 C 368.136719 483.265625 384.429688 478.734375 399.980469 468.273438 C 400.804688 467.78125 400.804688 467.203125 400.144531 466.542969 Z M 507.113281 349.894531 C 480.617188 328.148438 445.8125 326.996094 416.683594 346.351562 C 416.027344 346.847656 415.945312 347.34375 416.519531 348 C 448.773438 380.789062 449.679688 433.59375 416.601562 466.625 C 415.945312 467.203125 416.027344 467.78125 416.683594 468.191406 C 430.179688 477.253906 444.25 481.867188 458.8125 481.949219 C 490.246094 482.195312 517.972656 463 529.246094 433.675781 C 540.683594 403.773438 531.632812 369.996094 507.113281 349.894531 Z M 409.113281 460.695312 C 439.558594 430.957031 438.820312 383.257812 409.277344 354.015625 C 408.703125 353.4375 408.042969 353.4375 407.46875 354.097656 C 388.296875 374.363281 381.46875 397.59375 386.980469 423.789062 C 389.613281 436.476562 396.441406 448.75 407.46875 460.613281 C 408.042969 461.191406 408.621094 461.191406 409.113281 460.695312 Z M 409.113281 460.695312 " fill-opacity="1" fill-rule="evenodd"/><path fill="#000000" d="M 314.40625 420.90625 C 314.984375 421.152344 315.558594 421.234375 316.136719 421.070312 C 320.414062 420.246094 322.636719 417.941406 322.800781 414.152344 C 323.128906 405.832031 323.210938 397.429688 323.046875 388.941406 C 322.964844 386.800781 323.953125 385.402344 325.84375 384.578125 C 326.585938 384.246094 327.324219 384.164062 328.066406 384.332031 C 330.863281 384.988281 332.179688 386.71875 332.179688 389.601562 C 332.179688 395.453125 332.261719 401.628906 332.261719 408.21875 C 332.261719 415.140625 331.523438 419.917969 329.875 422.554688 C 324.691406 431.203125 312.351562 433.261719 304.863281 426.097656 C 301.570312 422.882812 299.84375 419.589844 299.761719 416.292969 C 299.597656 407.3125 299.597656 398.253906 299.679688 389.109375 C 299.761719 386.140625 301.242188 384.578125 304.121094 384.246094 C 304.699219 384.164062 305.191406 384.246094 305.6875 384.496094 C 307.824219 385.320312 308.894531 386.964844 308.894531 389.273438 C 308.894531 397.179688 308.894531 405.089844 308.8125 413.082031 C 308.8125 416.703125 310.621094 419.339844 314.40625 420.90625 Z M 314.40625 420.90625 " fill-opacity="1" fill-rule="evenodd"/><path fill="#000000" d="M 353.65625 397.097656 L 360.074219 386.882812 C 361.636719 384.414062 363.777344 383.753906 366.492188 384.824219 C 367.066406 385.070312 367.644531 385.484375 368.21875 386.058594 C 369.453125 387.378906 369.703125 389.355469 368.714844 390.921875 L 359.003906 406.324219 C 358.59375 406.902344 358.59375 407.5625 359.003906 408.300781 L 368.550781 423.378906 C 368.960938 424.117188 369.207031 424.941406 369.207031 425.765625 C 369.207031 427.578125 368.21875 429.144531 366.574219 429.886719 L 366 430.132812 C 364.023438 431.039062 361.71875 430.378906 360.566406 428.566406 L 353.492188 417.199219 C 353.328125 416.953125 353.082031 416.789062 352.75 416.789062 C 352.421875 416.789062 352.175781 416.953125 352.011719 417.199219 L 345.261719 427.992188 C 344.113281 430.050781 341.394531 430.875 339.175781 429.804688 L 337.445312 428.898438 C 336.378906 428.402344 335.71875 427.414062 335.71875 426.261719 C 335.71875 425.683594 335.882812 425.191406 336.210938 424.695312 L 346.496094 408.46875 C 346.910156 407.808594 346.910156 406.902344 346.496094 406.160156 L 336.625 390.671875 C 335.800781 389.355469 335.882812 387.542969 336.953125 386.390625 C 337.527344 385.730469 338.105469 385.234375 338.761719 384.90625 C 341.5625 383.589844 343.699219 384.164062 345.347656 386.71875 L 351.929688 397.097656 C 352.503906 398.003906 353.082031 398.003906 353.65625 397.097656 Z M 353.65625 397.097656 " fill-opacity="1" fill-rule="evenodd"/><path fill="#000000" d="M 469.59375 421.070312 C 470.25 421.152344 470.824219 421.070312 471.402344 420.824219 C 474.859375 419.421875 476.585938 417.527344 476.585938 415.386719 C 476.832031 406.160156 476.914062 397.429688 476.832031 389.191406 C 476.832031 386.226562 478.3125 384.660156 481.195312 384.332031 C 481.605469 384.246094 482.015625 384.332031 482.34375 384.332031 C 484.980469 384.742188 486.214844 386.308594 486.128906 388.859375 C 485.882812 395.203125 485.964844 401.960938 486.214844 409.125 C 486.460938 414.976562 485.636719 419.507812 483.578125 422.71875 C 477.160156 433.179688 462.1875 432.933594 455.769531 422.140625 C 454.121094 419.421875 453.300781 414.644531 453.382812 407.808594 C 453.382812 402.207031 453.382812 396.273438 453.464844 390.097656 C 453.464844 387.296875 454.78125 385.320312 457.414062 384.332031 C 458.15625 384 458.894531 384.082031 459.800781 384.496094 C 461.691406 385.320312 462.597656 386.71875 462.597656 388.777344 C 462.515625 397.347656 462.597656 405.832031 462.925781 414.234375 C 463.089844 418.023438 465.3125 420.328125 469.59375 421.070312 Z M 469.59375 421.070312 " fill-opacity="1" fill-rule="evenodd"/><path fill="#000000" d="M 505.632812 394.628906 L 505.632812 420.082031 C 505.632812 420.90625 506.042969 421.316406 506.949219 421.234375 C 510.320312 420.90625 511.96875 422.554688 511.886719 426.261719 C 511.800781 428.648438 509.910156 430.460938 507.605469 430.460938 L 494.359375 430.460938 C 492.878906 430.460938 491.398438 429.636719 490.65625 428.238281 C 488.433594 424.117188 491.148438 421.234375 495.347656 421.070312 C 496.003906 420.988281 496.332031 420.660156 496.332031 420 L 496.332031 394.628906 C 496.332031 393.722656 495.921875 393.390625 495.097656 393.390625 C 491.726562 393.722656 489.996094 392.074219 489.996094 388.53125 C 490.082031 386.058594 492.054688 384.164062 494.441406 384.164062 L 507.359375 384.164062 C 509.828125 384.164062 511.886719 386.226562 511.886719 388.777344 C 511.886719 388.941406 511.886719 389.109375 511.886719 389.273438 C 511.554688 392.15625 509.910156 393.472656 506.949219 393.308594 C 506.042969 393.308594 505.632812 393.722656 505.632812 394.628906 Z M 505.632812 394.628906 " fill-opacity="1" fill-rule="evenodd"/></svg>