<svg xmlns="http://www.w3.org/2000/svg" xmlns:xlink="http://www.w3.org/1999/xlink" width="1080" zoomAndPan="magnify" viewBox="0 0 810 809.999993" height="1080" preserveAspectRatio="xMidYMid meet" version="1.0"><defs><clipPath id="262fc0e58a"><path d="M 282 268.972656 L 295 268.972656 L 295 281 L 282 281 Z M 282 268.972656 " clip-rule="nonzero"/></clipPath><clipPath id="377c5d6bd3"><path d="M 305 268.972656 L 317 268.972656 L 317 281 L 305 281 Z M 305 268.972656 " clip-rule="nonzero"/></clipPath><clipPath id="120b76ac6d"><path d="M 328 268.972656 L 340 268.972656 L 340 281 L 328 281 Z M 328 268.972656 " clip-rule="nonzero"/></clipPath><clipPath id="d9c0624bd2"><path d="M 351 268.972656 L 363 268.972656 L 363 281 L 351 281 Z M 351 268.972656 " clip-rule="nonzero"/></clipPath><clipPath id="d0fb21e2e7"><path d="M 373 268.972656 L 386 268.972656 L 386 281 L 373 281 Z M 373 268.972656 " clip-rule="nonzero"/></clipPath><clipPath id="b8cfb71207"><path d="M 396 268.972656 L 408 268.972656 L 408 281 L 396 281 Z M 396 268.972656 " clip-rule="nonzero"/></clipPath><clipPath id="7379d5b0a5"><path d="M 419 268.972656 L 431 268.972656 L 431 281 L 419 281 Z M 419 268.972656 " clip-rule="nonzero"/></clipPath><clipPath id="0f5023e59e"><path d="M 441 268.972656 L 454 268.972656 L 454 281 L 441 281 Z M 441 268.972656 " clip-rule="nonzero"/></clipPath><clipPath id="80115092d1"><path d="M 464 268.972656 L 477 268.972656 L 477 281 L 464 281 Z M 464 268.972656 " clip-rule="nonzero"/></clipPath><clipPath id="ce8bf018e6"><path d="M 271 462 L 448 462 L 448 575.722656 L 271 575.722656 Z M 271 462 " clip-rule="nonzero"/></clipPath><clipPath id="225cb04a16"><path d="M 423 337 L 567 337 L 567 480 L 423 480 Z M 423 337 " clip-rule="nonzero"/></clipPath></defs><path fill="#000000" d="M 275.882812 534.28125 L 280.792969 524.03125 L 358.75 561.304688 L 353.839844 571.554688 Z M 275.882812 534.28125 " fill-opacity="1" fill-rule="nonzero"/><path fill="#000000" d="M 544.277344 422.335938 L 532.910156 422.335938 L 532.910156 433.691406 L 544.277344 433.691406 Z M 544.277344 422.335938 " fill-opacity="1" fill-rule="nonzero"/><path fill="#000000" d="M 544.277344 445.050781 L 532.910156 445.050781 L 532.910156 456.410156 L 544.277344 456.410156 Z M 544.277344 445.050781 " fill-opacity="1" fill-rule="nonzero"/><path fill="#000000" d="M 544.277344 467.769531 L 532.910156 467.769531 L 532.910156 479.128906 L 544.277344 479.128906 Z M 544.277344 467.769531 " fill-opacity="1" fill-rule="nonzero"/><g clip-path="url(#262fc0e58a)"><path fill="#000000" d="M 294.179688 268.980469 L 282.8125 268.980469 L 282.8125 280.339844 L 294.179688 280.339844 Z M 294.179688 268.980469 " fill-opacity="1" fill-rule="nonzero"/></g><g clip-path="url(#377c5d6bd3)"><path fill="#000000" d="M 316.921875 268.980469 L 305.554688 268.980469 L 305.554688 280.339844 L 316.921875 280.339844 Z M 316.921875 268.980469 " fill-opacity="1" fill-rule="nonzero"/></g><g clip-path="url(#120b76ac6d)"><path fill="#000000" d="M 339.65625 268.980469 L 328.289062 268.980469 L 328.289062 280.339844 L 339.65625 280.339844 Z M 339.65625 268.980469 " fill-opacity="1" fill-rule="nonzero"/></g><g clip-path="url(#d9c0624bd2)"><path fill="#000000" d="M 362.390625 268.980469 L 351.023438 268.980469 L 351.023438 280.339844 L 362.390625 280.339844 Z M 362.390625 268.980469 " fill-opacity="1" fill-rule="nonzero"/></g><g clip-path="url(#d0fb21e2e7)"><path fill="#000000" d="M 385.125 268.980469 L 373.757812 268.980469 L 373.757812 280.339844 L 385.125 280.339844 Z M 385.125 268.980469 " fill-opacity="1" fill-rule="nonzero"/></g><g clip-path="url(#b8cfb71207)"><path fill="#000000" d="M 407.859375 268.980469 L 396.492188 268.980469 L 396.492188 280.339844 L 407.859375 280.339844 Z M 407.859375 268.980469 " fill-opacity="1" fill-rule="nonzero"/></g><g clip-path="url(#7379d5b0a5)"><path fill="#000000" d="M 430.597656 268.980469 L 419.230469 268.980469 L 419.230469 280.339844 L 430.597656 280.339844 Z M 430.597656 268.980469 " fill-opacity="1" fill-rule="nonzero"/></g><g clip-path="url(#0f5023e59e)"><path fill="#000000" d="M 453.335938 268.980469 L 441.964844 268.980469 L 441.964844 280.339844 L 453.335938 280.339844 Z M 453.335938 268.980469 " fill-opacity="1" fill-rule="nonzero"/></g><g clip-path="url(#80115092d1)"><path fill="#000000" d="M 476.070312 268.980469 L 464.703125 268.980469 L 464.703125 280.339844 L 476.070312 280.339844 Z M 476.070312 268.980469 " fill-opacity="1" fill-rule="nonzero"/></g><g clip-path="url(#ce8bf018e6)"><path fill="#000000" d="M 424.914062 575.679688 C 423.414062 575.679688 421.734375 575.207031 420.867188 574.925781 L 278.25 512.25 C 274.109375 510.429688 271.445312 506.347656 271.445312 501.839844 C 271.445312 500.394531 271.71875 498.976562 272.253906 497.628906 L 283.664062 469.121094 C 286.136719 463.308594 293.132812 460.582031 298.730469 463.03125 L 298.742188 463.03125 C 298.742188 463.03125 440.839844 525.515625 440.839844 525.515625 C 444.976562 527.335938 447.644531 531.414062 447.644531 535.921875 C 447.644531 537.371094 447.371094 538.789062 446.835938 540.132812 L 435.46875 568.539062 C 433.722656 572.882812 429.585938 575.679688 424.910156 575.679688 Z M 424.632812 564.199219 C 424.796875 564.246094 425.027344 564.3125 425.222656 564.335938 L 436.277344 535.917969 L 294.1875 473.441406 L 282.808594 501.839844 L 424.625 564.191406 Z M 424.632812 564.199219 " fill-opacity="1" fill-rule="nonzero"/></g><path fill="#000000" d="M 487.4375 507.527344 L 372.894531 507.527344 L 372.894531 496.167969 L 487.4375 496.167969 C 496.84375 496.167969 504.492188 488.527344 504.492188 479.128906 L 504.492188 420.667969 L 515.859375 420.667969 L 515.859375 479.128906 C 515.859375 494.789062 503.109375 507.527344 487.4375 507.527344 Z M 487.4375 507.527344 " fill-opacity="1" fill-rule="nonzero"/><path fill="#000000" d="M 345.335938 456.410156 C 335.933594 456.410156 328.28125 448.765625 328.28125 439.371094 L 328.28125 348.492188 C 328.28125 339.09375 335.933594 331.453125 345.335938 331.453125 C 348.292969 331.453125 351.210938 332.226562 353.785156 333.683594 L 433.378906 379.136719 C 438.675781 382.167969 441.964844 387.832031 441.964844 393.921875 C 441.964844 400.011719 438.664062 405.699219 433.363281 408.71875 L 353.789062 454.15625 C 351.222656 455.621094 348.296875 456.394531 345.335938 456.394531 Z M 345.335938 342.816406 C 342.199219 342.816406 339.648438 345.363281 339.648438 348.5 L 339.648438 439.375 C 339.648438 442.511719 342.199219 445.058594 345.335938 445.058594 C 346.324219 445.058594 347.292969 444.804688 348.152344 444.3125 L 427.730469 398.878906 C 429.503906 397.867188 430.597656 395.976562 430.597656 393.941406 C 430.597656 391.902344 429.496094 390.019531 427.730469 389.003906 L 348.152344 343.566406 C 347.289062 343.070312 346.335938 342.824219 345.335938 342.824219 Z M 345.335938 342.816406 " fill-opacity="1" fill-rule="nonzero"/><path fill="#000000" d="M 365.324219 544.546875 L 374.15625 522.457031 L 384.710938 526.671875 L 375.878906 548.761719 Z M 365.324219 544.546875 " fill-opacity="1" fill-rule="nonzero"/><path fill="#000000" d="M 342.128906 534.34375 L 351.007812 512.140625 L 361.566406 516.355469 L 352.6875 538.558594 Z M 342.128906 534.34375 " fill-opacity="1" fill-rule="nonzero"/><path fill="#000000" d="M 318.929688 524.144531 L 327.957031 501.574219 L 338.511719 505.789062 L 329.484375 528.359375 Z M 318.929688 524.144531 " fill-opacity="1" fill-rule="nonzero"/><path fill="#000000" d="M 388.527344 554.738281 L 397.414062 532.507812 L 407.972656 536.722656 L 399.082031 558.953125 Z M 388.527344 554.738281 " fill-opacity="1" fill-rule="nonzero"/><path fill="#000000" d="M 295.726562 513.941406 L 304.789062 491.28125 L 315.34375 495.496094 L 306.285156 518.15625 Z M 295.726562 513.941406 " fill-opacity="1" fill-rule="nonzero"/><path fill="#000000" d="M 277.132812 507.527344 L 271.445312 507.527344 C 255.773438 507.527344 243.023438 494.789062 243.023438 479.128906 L 243.023438 320.097656 C 243.023438 304.441406 255.773438 291.699219 271.445312 291.699219 L 487.433594 291.699219 C 503.105469 291.699219 515.855469 304.441406 515.855469 320.097656 L 515.855469 367.199219 L 504.488281 367.199219 L 504.488281 320.097656 C 504.488281 310.703125 496.839844 303.058594 487.433594 303.058594 L 271.445312 303.058594 C 262.039062 303.058594 254.390625 310.703125 254.390625 320.097656 L 254.390625 479.128906 C 254.390625 488.527344 262.039062 496.167969 271.445312 496.167969 L 277.132812 496.167969 Z M 277.132812 507.527344 " fill-opacity="1" fill-rule="nonzero"/><g clip-path="url(#225cb04a16)"><path fill="#000000" d="M 423.675781 479.011719 L 442.441406 428.058594 C 442.753906 427.011719 443.5 425.773438 444.5 424.792969 L 529.722656 339.632812 C 532.949219 336.40625 538.597656 336.414062 541.8125 339.667969 L 564.523438 362.363281 C 566.132812 363.988281 567.011719 366.121094 567.011719 368.375 C 567.011719 370.632812 566.121094 372.8125 564.492188 374.425781 L 479.257812 459.59375 C 478.324219 460.535156 477.171875 461.242188 475.925781 461.648438 Z M 452.933594 432.421875 L 442.496094 460.78125 L 471.699219 451.082031 L 554.46875 368.375 L 535.753906 349.675781 L 452.933594 432.429688 Z M 452.53125 432.832031 L 452.496094 432.859375 C 452.496094 432.859375 452.519531 432.835938 452.53125 432.832031 Z M 453.207031 431.683594 L 453.101562 431.980469 C 453.140625 431.886719 453.175781 431.785156 453.207031 431.683594 Z M 556.476562 366.367188 C 556.476562 366.367188 556.460938 366.378906 556.453125 366.390625 Z M 533.753906 347.679688 C 533.753906 347.679688 533.765625 347.691406 533.773438 347.703125 Z M 533.753906 347.679688 " fill-opacity="1" fill-rule="nonzero"/></g><path fill="#000000" d="M 444.320312 432.945312 L 452.402344 424.945312 L 479 451.773438 L 470.917969 459.773438 Z M 444.320312 432.945312 " fill-opacity="1" fill-rule="nonzero"/><path fill="#000000" d="M 509.851562 367.5625 L 517.929688 359.566406 L 544.519531 386.394531 L 536.4375 394.390625 Z M 509.851562 367.5625 " fill-opacity="1" fill-rule="nonzero"/></svg>