<svg xmlns="http://www.w3.org/2000/svg" xmlns:xlink="http://www.w3.org/1999/xlink" width="1080" zoomAndPan="magnify" viewBox="0 0 810 809.999993" height="1080" preserveAspectRatio="xMidYMid meet" version="1.0"><defs><clipPath id="df7cf1a673"><path d="M 289.152344 280.019531 L 520.902344 280.019531 L 520.902344 490.019531 L 289.152344 490.019531 Z M 289.152344 280.019531 " clip-rule="nonzero"/></clipPath></defs><g clip-path="url(#df7cf1a673)"><path fill="#100f0d" d="M 507.503906 421.070312 L 302.546875 421.070312 L 302.546875 293.160156 L 507.503906 293.160156 Z M 427.554688 442.144531 L 382.5 442.144531 C 380.089844 442.144531 378.132812 440.195312 378.132812 437.789062 C 378.132812 435.382812 380.089844 433.425781 382.5 433.425781 L 427.554688 433.425781 C 429.96875 433.425781 431.917969 435.382812 431.917969 437.789062 C 431.917969 440.195312 429.96875 442.144531 427.554688 442.144531 Z M 513.109375 280.082031 L 296.945312 280.082031 C 292.820312 280.082031 289.464844 283.441406 289.464844 287.5625 L 289.464844 447.019531 C 289.464844 451.144531 292.820312 454.503906 296.945312 454.503906 L 397.757812 454.503906 L 397.757812 474.585938 L 385.578125 474.585938 C 385.242188 474.585938 384.910156 474.6875 384.636719 474.886719 L 367.160156 487.109375 C 365.84375 488.035156 366.492188 490.113281 368.113281 490.113281 L 441.941406 490.113281 C 443.5625 490.113281 444.210938 488.035156 442.890625 487.109375 L 425.417969 474.886719 C 425.140625 474.6875 424.8125 474.585938 424.472656 474.585938 L 412.296875 474.585938 L 412.296875 454.503906 L 513.109375 454.503906 C 517.234375 454.503906 520.589844 451.144531 520.589844 447.019531 L 520.589844 287.5625 C 520.589844 283.441406 517.234375 280.082031 513.109375 280.082031 " fill-opacity="1" fill-rule="nonzero"/></g><path fill="#100f0d" d="M 351.730469 326.429688 C 360.96875 326.429688 368.480469 333.945312 368.480469 343.179688 C 368.480469 352.417969 360.96875 359.929688 351.730469 359.929688 C 342.496094 359.929688 334.984375 352.417969 334.984375 343.179688 C 334.984375 333.945312 342.496094 326.429688 351.730469 326.429688 Z M 327.382812 357.449219 L 322.121094 364.328125 L 330.585938 372.789062 L 337.464844 367.53125 C 339.671875 368.835938 342.070312 369.839844 344.609375 370.503906 L 345.753906 379.074219 L 357.710938 379.074219 L 358.855469 370.503906 C 361.394531 369.839844 363.792969 368.835938 366 367.53125 L 372.878906 372.789062 L 381.34375 364.328125 L 376.082031 357.449219 C 377.386719 355.238281 378.394531 352.84375 379.0625 350.304688 L 387.625 349.160156 L 387.625 337.195312 L 379.0625 336.058594 C 378.394531 333.519531 377.386719 331.125 376.082031 328.910156 L 381.34375 322.035156 L 372.878906 313.574219 L 366 318.835938 C 363.792969 317.527344 361.394531 316.523438 358.855469 315.855469 L 357.710938 307.292969 L 345.753906 307.292969 L 344.609375 315.855469 C 342.070312 316.523438 339.671875 317.527344 337.464844 318.835938 L 330.585938 313.574219 L 322.121094 322.035156 L 327.382812 328.910156 C 326.078125 331.125 325.070312 333.519531 324.402344 336.058594 L 315.839844 337.195312 L 315.839844 349.160156 L 324.402344 350.304688 C 325.070312 352.84375 326.078125 355.238281 327.382812 357.449219 " fill-opacity="1" fill-rule="nonzero"/><path fill="#100f0d" d="M 470.117188 366.785156 L 485.089844 381.757812 L 473.566406 393.28125 L 475.769531 400.203125 L 494.214844 381.757812 L 474.679688 362.226562 L 470.117188 366.785156 " fill-opacity="1" fill-rule="nonzero"/><path fill="#100f0d" d="M 450.113281 370.230469 L 447.914062 363.3125 L 429.464844 381.757812 L 448.996094 401.292969 L 453.558594 396.726562 L 438.589844 381.757812 L 450.113281 370.230469 " fill-opacity="1" fill-rule="nonzero"/><path fill="#100f0d" d="M 451.019531 356.703125 L 467.46875 408.46875 L 472.664062 406.8125 L 456.210938 355.054688 L 451.019531 356.703125 " fill-opacity="1" fill-rule="nonzero"/><path fill="#100f0d" d="M 494.214844 304.210938 L 397.140625 304.210938 L 397.140625 311.914062 L 494.214844 311.914062 L 494.214844 304.210938 " fill-opacity="1" fill-rule="nonzero"/><path fill="#100f0d" d="M 412.910156 387.410156 L 315.839844 387.410156 L 315.839844 395.113281 L 412.910156 395.113281 L 412.910156 387.410156 " fill-opacity="1" fill-rule="nonzero"/><path fill="#100f0d" d="M 355.902344 408.980469 L 412.910156 408.980469 L 412.910156 401.273438 L 355.902344 401.273438 L 355.902344 408.980469 " fill-opacity="1" fill-rule="nonzero"/><path fill="#100f0d" d="M 420.253906 327.320312 L 494.214844 327.320312 L 494.214844 319.617188 L 420.253906 319.617188 L 420.253906 327.320312 " fill-opacity="1" fill-rule="nonzero"/><path fill="#100f0d" d="M 431.042969 342.726562 L 494.214844 342.726562 L 494.214844 335.023438 L 431.042969 335.023438 L 431.042969 342.726562 " fill-opacity="1" fill-rule="nonzero"/></svg>